<svg width="55" height="34" viewBox="0 0 55 34" fill="none" xmlns="http://www.w3.org/2000/svg">
<path d="M20.634 16.2292C20.8521 16.2292 21.0198 16.3298 21.1372 16.5311C21.2714 16.7324 21.3385 17.0091 21.3385 17.3614C21.3385 18.0155 21.1791 18.5355 20.8604 18.9213C19.9211 20.0451 19.007 20.8334 18.118 21.2863C17.2458 21.7392 16.1891 21.9656 14.9478 21.9656C14.0756 21.9656 13.2705 21.8566 12.5325 21.6386C11.7945 21.4205 10.8971 21.0934 9.84036 20.6573C8.88428 20.238 7.96174 19.8941 7.07276 19.6258C6.21732 21.1857 4.93416 21.9656 3.22328 21.9656C2.28397 21.9656 1.53756 21.756 0.984036 21.3366C0.413743 20.9005 0.128596 20.347 0.128596 19.6761C0.128596 18.8542 0.52277 18.1749 1.31112 17.6381C2.09946 17.0846 3.1478 16.8078 4.45612 16.8078H4.7832L5.23608 9.48628C5.33672 7.80895 5.63864 6.42515 6.14184 5.33488C6.64504 4.24462 7.34113 3.3137 8.23012 2.54212C9.00169 1.87119 9.88229 1.36799 10.8719 1.03252C11.8615 0.680283 12.9099 0.504163 14.0169 0.504163C15.8284 0.504163 17.2206 0.973816 18.1935 1.91312C19.1663 2.85243 19.6528 4.07688 19.6528 5.58648C19.6528 6.60966 19.4683 7.43994 19.0992 8.07732C18.7302 8.69794 18.2186 9.00824 17.5645 9.00824C17.0948 9.00824 16.7258 8.89922 16.4574 8.68116C16.1891 8.44634 16.0549 8.11926 16.0549 7.69992C16.0549 7.54896 16.0884 7.2722 16.1555 6.86964C16.2562 6.39999 16.3065 5.98066 16.3065 5.61164C16.3065 4.90716 16.0968 4.35364 15.6775 3.95108C15.2749 3.53175 14.6543 3.32208 13.8156 3.32208C12.3396 3.32208 11.199 3.80851 10.3939 4.78136C9.58876 5.73744 9.07717 7.24704 8.85912 9.31016L8.28044 15.0215C8.19657 15.8266 8.08754 16.5227 7.95336 17.1098C9.02685 17.2943 10.3687 17.5878 11.979 17.9904C12.9183 18.2252 13.6395 18.3929 14.1427 18.4936C14.6459 18.5942 15.0904 18.6445 15.4762 18.6445C16.4491 18.6445 17.2793 18.4852 17.967 18.1665C18.6715 17.831 19.3341 17.3027 19.9547 16.5814C20.156 16.3466 20.3824 16.2292 20.634 16.2292ZM34.1431 14.1157C34.3612 14.1157 34.5289 14.2248 34.6463 14.4428C34.7638 14.6609 34.8225 14.9376 34.8225 15.2731C34.8225 16.0782 34.5793 16.5562 34.0928 16.7072C33.0864 17.0594 31.9794 17.2607 30.7717 17.311C30.453 18.72 29.824 19.8522 28.8847 20.7076C27.9454 21.5463 26.8803 21.9656 25.6894 21.9656C24.683 21.9656 23.8192 21.7224 23.0979 21.236C22.3934 20.7496 21.8567 20.1038 21.4877 19.2987C21.1187 18.4936 20.9341 17.6214 20.9341 16.682C20.9341 15.4073 21.1774 14.2751 21.6638 13.2854C22.1502 12.279 22.8211 11.4991 23.6766 10.9456C24.532 10.3753 25.4797 10.0901 26.5197 10.0901C27.7944 10.0901 28.8176 10.5346 29.5892 11.4236C30.3775 12.2958 30.8388 13.3777 30.973 14.6692C31.7613 14.6189 32.7006 14.4512 33.7909 14.166C33.9251 14.1325 34.0425 14.1157 34.1431 14.1157ZM25.8907 19.2987C26.4274 19.2987 26.8887 19.0806 27.2745 18.6445C27.677 18.2084 27.9454 17.5794 28.0796 16.7575C27.5596 16.4053 27.1571 15.944 26.8719 15.3737C26.6035 14.8034 26.4693 14.1996 26.4693 13.5622C26.4693 13.2938 26.4945 13.0255 26.5448 12.7571H26.419C25.7481 12.7571 25.1862 13.0842 24.7333 13.7383C24.2972 14.3757 24.0791 15.2815 24.0791 16.4556C24.0791 17.3781 24.2553 18.0826 24.6075 18.569C24.9765 19.0555 25.4042 19.2987 25.8907 19.2987ZM45.545 16.2795C45.763 16.2795 45.9307 16.3885 46.0482 16.6066C46.1823 16.8078 46.2494 17.0678 46.2494 17.3865C46.2494 17.7723 46.1907 18.0742 46.0733 18.2923C45.9559 18.5103 45.7714 18.7032 45.5198 18.871C44.0773 19.8438 43.0206 20.5651 42.3496 21.0347L40.7394 22.1166C40.102 25.5887 39.2633 28.3144 38.2234 30.2936C37.2002 32.2896 35.8919 33.2876 34.2984 33.2876C33.443 33.2876 32.7469 33.0193 32.2102 32.4825C31.6734 31.9626 31.405 31.2748 31.405 30.4194C31.405 29.2285 31.8747 27.9453 32.814 26.5699C33.7533 25.2113 35.5145 23.534 38.0976 21.5379L38.2486 20.5567C37.9634 21.0096 37.586 21.3618 37.1164 21.6134C36.6635 21.8482 36.2106 21.9656 35.7577 21.9656C34.7178 21.9656 33.8875 21.5882 33.2669 20.8334C32.6463 20.0786 32.336 19.089 32.336 17.8646C32.336 16.5227 32.6463 15.2563 33.2669 14.0654C33.8875 12.8577 34.7094 11.8933 35.7326 11.172C36.7725 10.434 37.8712 10.065 39.0285 10.065C39.3975 10.065 39.6407 10.1404 39.7582 10.2914C39.8923 10.4256 40.0014 10.6772 40.0852 11.0462C40.4039 10.9791 40.7729 10.9456 41.1923 10.9456C41.6116 10.9456 41.9051 11.0127 42.0729 11.1468C42.2574 11.2643 42.3496 11.5075 42.3496 11.8765C42.3496 12.0778 42.3412 12.2371 42.3245 12.3545C42.2574 12.8745 42.0477 14.1912 41.6955 16.3046C41.6284 16.7072 41.5529 17.1517 41.469 17.6381C41.4019 18.1078 41.3265 18.611 41.2426 19.1477C42.5341 18.1413 43.7754 17.2523 44.9663 16.4808C45.1843 16.3466 45.3772 16.2795 45.545 16.2795ZM36.6635 19.4245C37.0493 19.4245 37.4183 19.1897 37.7705 18.72C38.1228 18.2504 38.3744 17.5794 38.5253 16.7072L39.3304 12.4048C38.6427 12.4216 38.0053 12.69 37.4183 13.21C36.8312 13.7132 36.3616 14.3841 36.0093 15.2228C35.6571 16.0614 35.481 16.9504 35.481 17.8897C35.481 18.4097 35.5816 18.7955 35.7829 19.0471C36.0009 19.2987 36.2945 19.4245 36.6635 19.4245ZM34.5752 30.8471C34.9945 30.8471 35.4642 30.3439 35.9842 29.3375C36.5209 28.3311 37.0325 26.7293 37.5189 24.532C36.2274 25.639 35.2964 26.637 34.7262 27.526C34.1559 28.415 33.8707 29.195 33.8707 29.8659C33.8707 30.151 33.921 30.3859 34.0217 30.5704C34.1391 30.7549 34.3236 30.8471 34.5752 30.8471ZM48.9545 21.9656C47.9649 21.9656 47.1178 21.7224 46.4134 21.236C45.7257 20.7328 45.2057 20.0786 44.8534 19.2735C44.5012 18.4684 44.3251 17.6046 44.3251 16.682C44.3251 15.4073 44.5599 14.2751 45.0296 13.2854C45.516 12.279 46.1702 11.4991 46.992 10.9456C47.8139 10.3753 48.7365 10.0901 49.7596 10.0901C50.7493 10.0901 51.5963 10.3417 52.3008 10.8449C53.0053 11.3314 53.5336 11.9771 53.8859 12.7822C54.2381 13.5874 54.4142 14.4512 54.4142 15.3737C54.4142 16.6485 54.171 17.7891 53.6846 18.7955C53.1982 19.7851 52.5356 20.5651 51.697 21.1354C50.8751 21.6889 49.9609 21.9656 48.9545 21.9656ZM49.2313 19.2484C49.8016 19.2484 50.2796 18.9381 50.6654 18.3174C51.068 17.6968 51.2692 16.7911 51.2692 15.6002C51.2692 14.6776 51.1015 13.9815 50.766 13.5119C50.4306 13.0422 50.028 12.8074 49.5584 12.8074C48.9545 12.8074 48.4513 13.1177 48.0488 13.7383C47.663 14.3422 47.4701 15.2479 47.4701 16.4556C47.4701 17.4117 47.6378 18.1162 47.9733 18.569C48.3088 19.0219 48.7281 19.2484 49.2313 19.2484Z" fill="white"/>
</svg>
