<svg width="48" height="29" viewBox="0 0 48 29" fill="none" xmlns="http://www.w3.org/2000/svg">
<path d="M18.028 14.094C18.2187 14.094 18.3653 14.182 18.468 14.358C18.5853 14.534 18.644 14.776 18.644 15.084C18.644 15.656 18.5047 16.1107 18.226 16.448C17.4047 17.4307 16.6053 18.12 15.828 18.516C15.0653 18.912 14.1413 19.11 13.056 19.11C12.2933 19.11 11.5893 19.0147 10.944 18.824C10.2987 18.6333 9.514 18.3473 8.59 17.966C7.754 17.5993 6.94733 17.2987 6.17 17.064C5.422 18.428 4.3 19.11 2.804 19.11C1.98267 19.11 1.33 18.9267 0.846 18.56C0.347333 18.1787 0.098 17.6947 0.098 17.108C0.098 16.3893 0.442667 15.7953 1.132 15.326C1.82133 14.842 2.738 14.6 3.882 14.6H4.168L4.564 8.198C4.652 6.73133 4.916 5.52133 5.356 4.568C5.796 3.61467 6.40467 2.80067 7.182 2.126C7.85667 1.53933 8.62667 1.09933 9.492 0.806C10.3573 0.497999 11.274 0.343999 12.242 0.343999C13.826 0.343999 15.0433 0.754666 15.894 1.576C16.7447 2.39733 17.17 3.468 17.17 4.788C17.17 5.68267 17.0087 6.40867 16.686 6.966C16.3633 7.50867 15.916 7.78 15.344 7.78C14.9333 7.78 14.6107 7.68467 14.376 7.494C14.1413 7.28867 14.024 7.00267 14.024 6.636C14.024 6.504 14.0533 6.262 14.112 5.91C14.2 5.49933 14.244 5.13267 14.244 4.81C14.244 4.194 14.0607 3.71 13.694 3.358C13.342 2.99133 12.7993 2.808 12.066 2.808C10.7753 2.808 9.778 3.23333 9.074 4.084C8.37 4.92 7.92267 6.24 7.732 8.044L7.226 13.038C7.15267 13.742 7.05733 14.3507 6.94 14.864C7.87867 15.0253 9.052 15.282 10.46 15.634C11.2813 15.8393 11.912 15.986 12.352 16.074C12.792 16.162 13.1807 16.206 13.518 16.206C14.3687 16.206 15.0947 16.0667 15.696 15.788C16.312 15.4947 16.8913 15.0327 17.434 14.402C17.61 14.1967 17.808 14.094 18.028 14.094ZM29.8405 12.246C30.0311 12.246 30.1778 12.3413 30.2805 12.532C30.3831 12.7227 30.4345 12.9647 30.4345 13.258C30.4345 13.962 30.2218 14.38 29.7965 14.512C28.9165 14.82 27.9485 14.996 26.8925 15.04C26.6138 16.272 26.0638 17.262 25.2425 18.01C24.4211 18.7433 23.4898 19.11 22.4485 19.11C21.5685 19.11 20.8131 18.8973 20.1825 18.472C19.5665 18.0467 19.0971 17.482 18.7745 16.778C18.4518 16.074 18.2905 15.3113 18.2905 14.49C18.2905 13.3753 18.5031 12.3853 18.9285 11.52C19.3538 10.64 19.9405 9.958 20.6885 9.474C21.4365 8.97533 22.2651 8.726 23.1745 8.726C24.2891 8.726 25.1838 9.11467 25.8585 9.892C26.5478 10.6547 26.9511 11.6007 27.0685 12.73C27.7578 12.686 28.5791 12.5393 29.5325 12.29C29.6498 12.2607 29.7525 12.246 29.8405 12.246ZM22.6245 16.778C23.0938 16.778 23.4971 16.5873 23.8345 16.206C24.1865 15.8247 24.4211 15.2747 24.5385 14.556C24.0838 14.248 23.7318 13.8447 23.4825 13.346C23.2478 12.8473 23.1305 12.3193 23.1305 11.762C23.1305 11.5273 23.1525 11.2927 23.1965 11.058H23.0865C22.4998 11.058 22.0085 11.344 21.6125 11.916C21.2311 12.4733 21.0405 13.2653 21.0405 14.292C21.0405 15.0987 21.1945 15.7147 21.5025 16.14C21.8251 16.5653 22.1991 16.778 22.6245 16.778ZM39.8102 14.138C40.0009 14.138 40.1476 14.2333 40.2502 14.424C40.3676 14.6 40.4262 14.8273 40.4262 15.106C40.4262 15.4433 40.3749 15.7073 40.2722 15.898C40.1696 16.0887 40.0082 16.2573 39.7882 16.404C38.5269 17.2547 37.6029 17.8853 37.0162 18.296L35.6082 19.242C35.0509 22.278 34.3176 24.6613 33.4082 26.392C32.5136 28.1373 31.3696 29.01 29.9762 29.01C29.2282 29.01 28.6196 28.7753 28.1502 28.306C27.6809 27.8513 27.4462 27.25 27.4462 26.502C27.4462 25.4607 27.8569 24.3387 28.6782 23.136C29.4996 21.948 31.0396 20.4813 33.2982 18.736L33.4302 17.878C33.1809 18.274 32.8509 18.582 32.4402 18.802C32.0442 19.0073 31.6482 19.11 31.2522 19.11C30.3429 19.11 29.6169 18.78 29.0742 18.12C28.5316 17.46 28.2602 16.5947 28.2602 15.524C28.2602 14.3507 28.5316 13.2433 29.0742 12.202C29.6169 11.146 30.3356 10.3027 31.2302 9.672C32.1396 9.02667 33.1002 8.704 34.1122 8.704C34.4349 8.704 34.6476 8.77 34.7502 8.902C34.8676 9.01933 34.9629 9.23933 35.0362 9.562C35.3149 9.50333 35.6376 9.474 36.0042 9.474C36.3709 9.474 36.6276 9.53267 36.7742 9.65C36.9356 9.75267 37.0162 9.96533 37.0162 10.288C37.0162 10.464 37.0089 10.6033 36.9942 10.706C36.9356 11.1607 36.7522 12.312 36.4442 14.16C36.3856 14.512 36.3196 14.9007 36.2462 15.326C36.1876 15.7367 36.1216 16.1767 36.0482 16.646C37.1776 15.766 38.2629 14.9887 39.3042 14.314C39.4949 14.1967 39.6636 14.138 39.8102 14.138ZM32.0442 16.888C32.3816 16.888 32.7042 16.6827 33.0122 16.272C33.3202 15.8613 33.5402 15.2747 33.6722 14.512L34.3762 10.75C33.7749 10.7647 33.2176 10.9993 32.7042 11.454C32.1909 11.894 31.7802 12.4807 31.4722 13.214C31.1642 13.9473 31.0102 14.7247 31.0102 15.546C31.0102 16.0007 31.0982 16.338 31.2742 16.558C31.4649 16.778 31.7216 16.888 32.0442 16.888ZM30.2182 26.876C30.5849 26.876 30.9956 26.436 31.4502 25.556C31.9196 24.676 32.3669 23.2753 32.7922 21.354C31.6629 22.322 30.8489 23.1947 30.3502 23.972C29.8516 24.7493 29.6022 25.4313 29.6022 26.018C29.6022 26.2673 29.6462 26.4727 29.7342 26.634C29.8369 26.7953 29.9982 26.876 30.2182 26.876ZM42.7916 19.11C41.9262 19.11 41.1856 18.8973 40.5696 18.472C39.9682 18.032 39.5136 17.46 39.2056 16.756C38.8976 16.052 38.7436 15.2967 38.7436 14.49C38.7436 13.3753 38.9489 12.3853 39.3596 11.52C39.7849 10.64 40.3569 9.958 41.0756 9.474C41.7942 8.97533 42.6009 8.726 43.4956 8.726C44.3609 8.726 45.1016 8.946 45.7176 9.386C46.3336 9.81133 46.7956 10.376 47.1036 11.08C47.4116 11.784 47.5656 12.5393 47.5656 13.346C47.5656 14.4607 47.3529 15.458 46.9276 16.338C46.5022 17.2033 45.9229 17.8853 45.1896 18.384C44.4709 18.868 43.6716 19.11 42.7916 19.11ZM43.0336 16.734C43.5322 16.734 43.9502 16.4627 44.2876 15.92C44.6396 15.3773 44.8156 14.5853 44.8156 13.544C44.8156 12.7373 44.6689 12.1287 44.3756 11.718C44.0822 11.3073 43.7302 11.102 43.3196 11.102C42.7916 11.102 42.3516 11.3733 41.9996 11.916C41.6622 12.444 41.4936 13.236 41.4936 14.292C41.4936 15.128 41.6402 15.744 41.9336 16.14C42.2269 16.536 42.5936 16.734 43.0336 16.734Z" fill="white"/>
</svg>
